<svg height="75" version="1.2" viewBox="0 0 520 75" width="520" xmlns="http://www.w3.org/2000/svg">
    <title>Name</title>
    <style>
        .s0 { fill: #4D5ACE;stroke: #4D5ACE;stroke-width: 0 }
        .s1 { fill: #252C69;stroke: #252C69;stroke-width: 0 }
    </style>
    <path class="s0"
        d="m99.7 45.8c-5.1 0-9.3-4.1-9.3-9.2 0-5.2 4.2-9.3 9.3-9.3 5.1 0 9.3 4.1 9.3 9.3 0 5.1-4.2 9.2-9.3 9.2zm284.3-43.5h48.6v14.5h-48.6z"
        id="Purple" />
    <path class="s1"
        d="m46.7 2.2v46.2c0 16.2-10.1 23.8-24.2 23.8-6.9 0-14.1-2-19.8-7.8l7.4-12.8 1.5 1.4c3.1 3 6.2 4.5 9.7 4.5 5.6 0 9.1-3.6 9.1-9.4v-45.9zm88.5 34.5c0 19.6-15.9 35.5-35.5 35.5-19.6 0-35.6-15.9-35.6-35.5 0-17.7 12.9-32.4 29.8-35.1v16.7c-7.8 2.4-13.4 9.7-13.4 18.3 0 10.6 8.6 19.1 19.1 19.1 10.6 0 19.2-8.5 19.2-19.1 0-8.6-5.6-15.8-13.4-18.3v-16.7c16.9 2.7 29.7 17.4 29.8 35.1zm62.8-34.5h16.5v41.2c0 17.1-10 28.8-30.9 28.8-21 0-31.1-11.8-31.1-28.7v-41.2h16.5v40.7c0 9.2 5.4 14.5 14.6 14.5 9.1 0 14.4-5.3 14.4-14.5v-40.7c0 0 0-0.1 0-0.1zm89.5 68.7h-18.7l-12.6-22.7h-8.1v22.7h-16.2v-68.7h32.1c14.3 0 23.1 9.4 23.1 22.2 0 12.1-7.7 18.6-15.1 20.4zm-39.3-39h13.7c5.2 0 8.6-3 8.6-7.6 0-4.6-3.4-7.6-8.6-7.6h-13.7zm118.3-29.7v68.7h-16.1l-29.1-39.8v39.8h-16.3v-68.7h15.1l30.2 40.9v-40.9zm66 54.2v14.5h-48.6v-41.3h47.9v14.5h-31.6v12.3zm84.7-54.2l-25.4 39.3v29.4h-16.2v-29.4l-25.6-39.3h18.6l15.1 24.5 14.9-24.5z"
        fill-rule="evenodd" id="Black" />
</svg>